# xmcd
#
# Track frame offsets:
#	150
#	17745
#	30058
#	48223
#	71221
#	89778
#	109483
#	127973
#	149058
#	164175
#	182846
#	200857
#	218831
#	238049
#	259221
#	275994
#	296621
#	314988
#
# Disc length: 4496 seconds
#
# Revision: 1
# Processed by: cddbd v1.5.2PL0 Copyright (c) Steve Scherf et al.
# Submitted via: audiograbber 1.83.01
#
DISCID=33118e12
DTITLE=Chris Whitley - On Air
DYEAR=2008
DGENRE=Blues
TTITLE0=The Old Man And Me
TTITLE1=Drifting
TTITLE2=Kick The Stones
TTITLE3=Clear Blue Sky
TTITLE4=Light Rain
TTITLE5=She's Alright
TTITLE6=New Lost World
TTITLE7=To Joy (Revolution Of The Innocents)
TTITLE8=The Crystal Ship
TTITLE9=Fourth Time Around
TTITLE10=Vertical Desert
TTITLE11=Hotel Vast Horizon
TTITLE12=Scrapyard Lullaby
TTITLE13=Phonecall From Leavenworth
TTITLE14=From A Photograph
TTITLE15=Shadowland
TTITLE16=Well ... All Right
TTITLE17=Velocity Girl
EXTD=
EXTT0=
EXTT1=
EXTT2=
EXTT3=
EXTT4=
EXTT5=
EXTT6=
EXTT7=
EXTT8=
EXTT9=
EXTT10=
EXTT11=
EXTT12=
EXTT13=
EXTT14=
EXTT15=
EXTT16=
EXTT17=
PLAYORDER=
